<svg width="88" height="65" viewBox="0 0 88 65" fill="none" xmlns="http://www.w3.org/2000/svg">
<g clip-path="url(#clip0_0_1001)">
<path fill-rule="evenodd" clip-rule="evenodd" d="M73.8289 37.1395C72.8822 37.1395 71.9369 37.2414 71.0129 37.4437C68.0573 30.519 61.163 25.899 53.7027 25.899C44.3929 25.899 36.6519 32.5362 35.1104 41.7534C35.0892 41.7534 35.0679 41.7534 35.0452 41.7534C28.958 41.7534 24.0057 46.7658 24.0057 52.9284C24.0057 59.0878 28.958 64.0988 35.0452 64.0988H73.8289C81.1708 64.0988 87.1442 58.0519 87.1442 50.6191C87.1442 43.1864 81.1708 37.1395 73.8289 37.1395ZM84.4663 50.6191C84.4663 56.5626 79.6946 61.3986 73.8289 61.3986H35.0452C30.4343 61.3986 26.6837 57.5986 26.6837 52.9284C26.6837 48.2551 30.4343 44.4536 35.0452 44.4536C35.3532 44.4536 35.69 44.4779 36.1042 44.5296L37.4652 44.7L37.6017 43.3248C38.4408 34.9306 45.3639 28.6008 53.7027 28.6008C60.5242 28.6008 66.6478 32.9834 68.9404 39.5095L69.3728 40.7417L70.6063 40.3447C71.6547 40.01 72.738 39.8412 73.8289 39.8412C79.6946 39.8412 84.4663 44.6757 84.4663 50.6191Z" fill="white"/>
<path fill-rule="evenodd" clip-rule="evenodd" d="M19.2264 19.8871C19.7559 20.4834 20.6754 20.5382 21.2701 20.0088C21.8664 19.4779 21.921 18.556 21.3915 17.9597L12.8844 8.35311C12.3564 7.75679 11.4369 7.70202 10.8406 8.23293C10.2459 8.76232 10.1913 9.68419 10.7193 10.282L19.2264 19.8871Z" fill="white"/>
<path fill-rule="evenodd" clip-rule="evenodd" d="M18.2099 43.6443L8.83035 52.3944C8.24773 52.939 8.21435 53.8609 8.756 54.4466C9.29918 55.0307 10.2201 55.0642 10.8028 54.5196L20.1823 45.7694C20.765 45.2263 20.7983 44.303 20.2567 43.7188C19.7135 43.1346 18.7926 43.1012 18.2099 43.6443Z" fill="white"/>
<path fill-rule="evenodd" clip-rule="evenodd" d="M55.8754 10.2744C55.3322 9.69028 54.4112 9.65681 53.8286 10.1999L44.449 18.95C43.8664 19.4946 43.833 20.4165 44.3762 21.0022C44.9179 21.5863 45.8388 21.6198 46.4214 21.0752L55.801 12.3251C56.3836 11.782 56.417 10.8586 55.8754 10.2744Z" fill="white"/>
<path fill-rule="evenodd" clip-rule="evenodd" d="M33.707 15.9334C34.5005 15.9958 35.2 15.3949 35.2622 14.5993L36.2621 1.79354C36.3243 0.997932 35.7249 0.295121 34.9314 0.232751C34.1379 0.17038 33.4369 0.771268 33.3747 1.56687L32.3764 14.3726C32.3142 15.1698 32.912 15.8711 33.707 15.9334Z" fill="white"/>
<path fill-rule="evenodd" clip-rule="evenodd" d="M16.013 31.021C16.0858 30.227 15.4971 29.5165 14.7051 29.442L1.94818 28.2524C1.15466 28.1794 0.446107 28.7681 0.373279 29.5637C0.298934 30.3593 0.887624 31.0697 1.67962 31.1427L14.4366 32.3324C15.2301 32.4069 15.9387 31.8167 16.013 31.021Z" fill="white"/>
<path fill-rule="evenodd" clip-rule="evenodd" d="M21.5008 31.488C22.0273 25.6069 27.2269 21.2517 33.0926 21.7795C36.0557 22.0473 38.6275 23.5107 40.3814 25.6511C41.0202 25.0213 41.7166 24.4219 42.4722 23.8712C40.2676 21.1999 37.045 19.3744 33.3368 19.0413C25.9661 18.378 19.4313 23.8514 18.7698 31.2416C18.3419 36.0183 20.4782 40.4329 24.0271 43.1453C24.4276 42.4546 24.9677 41.7001 25.6854 40.9608C22.8618 38.8021 21.161 35.2881 21.5008 31.488Z" fill="white"/>
</g>
<defs>
<clipPath id="clip0_0_1001">
<rect width="88" height="64.4651" fill="white"/>
</clipPath>
</defs>
</svg>
