<svg width="88" height="63" viewBox="0 0 88 63" fill="none" xmlns="http://www.w3.org/2000/svg">
<g clip-path="url(#clip0_0_1219)">
<path fill-rule="evenodd" clip-rule="evenodd" d="M61.8314 58.1879C64.1762 58.2909 66.5749 58.1162 69.0389 57.5771C73.8023 56.5363 77.6473 53.7409 80.97 50.0929C81.4597 49.5553 81.9252 48.9939 82.4561 48.3786C71.0941 49.6375 61.6157 46.0238 54.8099 36.3758C48.0438 26.7876 47.3043 16.2288 51.5808 5.18311C51.5198 5.19505 51.446 5.19356 51.3878 5.22342C44.7906 8.69973 39.8797 13.8112 37.471 21.1998C36.6961 20.9624 35.853 20.7533 34.9999 20.6279C35.0837 20.3651 35.1546 20.1038 35.2441 19.8409C38.4774 10.3841 45.3115 4.57236 54.0619 1.05723C54.6481 0.822787 55.2059 0.915369 55.6189 1.44548C56.0319 1.9711 56.0206 2.5475 55.6813 3.12091C55.5834 3.28517 55.4883 3.45092 55.3946 3.61668C52.3757 8.9282 50.8896 14.6668 51.6404 20.831C52.925 31.3689 58.1255 39.11 67.2988 43.648C72.9762 46.4568 78.9517 46.5643 84.9839 44.9874C85.8384 44.7635 86.4359 44.8993 86.7936 45.4728C87.1541 46.0521 87.1144 46.6061 86.5239 47.3498C85.1912 49.0342 83.9123 50.7798 82.4518 52.3343C76.3287 58.8509 68.941 61.7821 60.2119 60.8265C60.0672 60.7996 59.921 60.7772 59.7748 60.7518C60.5043 60.044 61.2183 59.2048 61.8314 58.1879Z" fill="white"/>
<path fill-rule="evenodd" clip-rule="evenodd" d="M13.3248 35.8084C14.2119 35.8084 15.0962 35.9084 15.9606 36.107C18.724 29.3082 25.1736 24.7747 32.1526 24.7747C40.8617 24.7747 48.1033 31.2898 49.5453 40.3374C49.5652 40.3374 49.5865 40.3374 49.6064 40.3374C55.3008 40.3374 59.9336 45.2577 59.9336 51.3054C59.9336 57.3531 55.3008 62.2719 49.6064 62.2719H13.3248C6.45656 62.2719 0.86998 56.3362 0.86998 49.0401C0.86998 41.7441 6.45656 35.8084 13.3248 35.8084ZM3.37514 49.0401C3.37514 54.8743 7.83759 59.6214 13.3248 59.6214H49.6064C53.9198 59.6214 57.4284 55.8912 57.4284 51.3054C57.4284 46.7181 53.9198 42.988 49.6064 42.988C49.3182 42.988 49.0046 43.0118 48.6171 43.0611L47.3439 43.2299L47.2162 41.88C46.4299 33.6386 39.9548 27.4252 32.1526 27.4252C25.7711 27.4252 20.0426 31.7288 17.8994 38.1349L17.4935 39.3429L16.3395 38.9547C15.3602 38.6246 14.3453 38.4589 13.3248 38.4589C7.83759 38.4589 3.37514 43.2045 3.37514 49.0401Z" fill="white"/>
</g>
<defs>
<clipPath id="clip0_0_1219">
<rect width="88" height="62.7169" fill="white" transform="matrix(-1 0 0 1 88 0)"/>
</clipPath>
</defs>
</svg>
