<svg width="78" height="47" viewBox="0 0 78 47" fill="none" xmlns="http://www.w3.org/2000/svg">
<path fill-rule="evenodd" clip-rule="evenodd" d="M60.9875 13.9959C59.8431 13.9959 58.7014 14.1194 57.5853 14.3634C54.0186 6.02055 45.6925 0.455368 36.6856 0.455368C25.4437 0.455368 16.0964 8.45062 14.2358 19.5555C14.2088 19.554 14.1819 19.554 14.1563 19.554C6.80591 19.554 0.825439 25.5945 0.825439 33.0166C0.825439 40.4373 6.80591 46.4749 14.1563 46.4749H60.9875C69.8526 46.4749 77.0655 39.1889 77.0655 30.2361C77.0655 21.2819 69.8526 13.9959 60.9875 13.9959ZM73.832 30.2361C73.832 37.3958 68.0699 43.2206 60.9875 43.2206H14.1563C8.58857 43.2206 4.05889 38.6428 4.05889 33.0166C4.05889 27.3876 8.58857 22.8083 14.1563 22.8083C14.5279 22.8083 14.9335 22.8367 15.4341 22.8991L17.0764 23.1048L17.2423 21.4479C18.2563 11.3346 26.6151 3.70965 36.6856 3.70965C44.9224 3.70965 52.3154 8.99111 55.0837 16.8516L55.6055 18.3355L57.0961 17.8574C58.3611 17.4545 59.6701 17.2502 60.9875 17.2502C68.0699 17.2502 73.832 23.075 73.832 30.2361Z" fill="white"/>
</svg>
