<svg width="96" height="47" viewBox="0 0 96 47" fill="none" xmlns="http://www.w3.org/2000/svg">
<path fill-rule="evenodd" clip-rule="evenodd" d="M78.949 33.229H85.5804C89.9033 33.229 93.4199 29.6952 93.4199 25.3506C93.4199 21.0046 89.9033 17.4693 85.5804 17.4693C85.2924 17.4693 84.9763 17.4928 84.5879 17.5398L83.3118 17.6984L83.1848 16.4206C82.3961 8.61275 75.9065 2.72599 68.0862 2.72599C64.6908 2.72599 61.4859 3.88484 58.8983 5.87059C58.34 5.23903 57.7552 4.64124 57.1378 4.08459C60.2098 1.64646 64.0572 0.214432 68.0862 0.214432C76.8163 0.214432 84.0739 6.38612 85.5184 14.9592C85.539 14.9592 85.5597 14.9592 85.5804 14.9592C91.2872 14.9592 95.9307 19.621 95.9307 25.3506C95.9307 31.0787 91.2872 35.7406 85.5804 35.7406H78.8899C78.949 35.2206 78.9904 34.6933 78.9904 34.1558C78.9904 33.8429 78.9697 33.536 78.949 33.229Z" fill="white"/>
<path fill-rule="evenodd" clip-rule="evenodd" d="M17.0687 14.9842C18.1824 14.9842 19.293 15.1032 20.3785 15.3396C23.8508 7.26737 31.9532 1.88293 40.7202 1.88293C51.6598 1.88293 60.7576 9.61884 62.5683 20.3627C62.5949 20.3627 62.62 20.3627 62.6451 20.3627C69.7993 20.3627 75.6184 26.2054 75.6184 33.3862C75.6184 40.5669 69.7993 46.4081 62.6451 46.4081H17.0687C8.44057 46.4081 1.42075 39.3596 1.42075 30.6969C1.42075 22.0327 8.44057 14.9842 17.0687 14.9842ZM4.56807 30.6969C4.56807 37.625 10.1759 43.2606 17.0687 43.2606H62.6451C68.0639 43.2606 72.4726 38.8323 72.4726 33.3862C72.4726 27.94 68.0639 23.5103 62.6451 23.5103C62.2847 23.5103 61.8889 23.5382 61.4015 23.5984L59.8035 23.7967L59.6425 22.1943C58.6545 12.4095 50.5196 5.03047 40.7202 5.03047C32.7035 5.03047 25.5079 10.1417 22.814 17.7469L22.3059 19.1833L20.8556 18.7207C19.6238 18.33 18.3507 18.1332 17.0687 18.1332C10.1759 18.1332 4.56807 23.7688 4.56807 30.6969Z" fill="white"/>
</svg>
