<svg width="100" height="55" viewBox="0 0 100 55" fill="none" xmlns="http://www.w3.org/2000/svg">
<g filter="url(#filter0_d_0_1274)">
<path fill-rule="evenodd" clip-rule="evenodd" d="M80.949 33.229H87.5804C91.9033 33.229 95.4199 29.6952 95.4199 25.3506C95.4199 21.0046 91.9033 17.4693 87.5804 17.4693C87.2924 17.4693 86.9763 17.4928 86.5879 17.5398L85.3118 17.6984L85.1848 16.4206C84.3961 8.61273 77.9065 2.72598 70.0862 2.72598C66.6908 2.72598 63.4859 3.88482 60.8983 5.87057C60.34 5.23901 59.7552 4.64123 59.1378 4.08457C62.2098 1.64645 66.0572 0.214417 70.0862 0.214417C78.8163 0.214417 86.0739 6.3861 87.5184 14.9592C87.539 14.9592 87.5597 14.9592 87.5804 14.9592C93.2872 14.9592 97.9307 19.621 97.9307 25.3506C97.9307 31.0787 93.2872 35.7405 87.5804 35.7405H80.8899C80.949 35.2206 80.9904 34.6933 80.9904 34.1558C80.9904 33.8429 80.9697 33.5359 80.949 33.229Z" fill="white"/>
<path fill-rule="evenodd" clip-rule="evenodd" d="M19.0687 14.9842C20.1824 14.9842 21.293 15.1032 22.3785 15.3396C25.8508 7.26737 33.9532 1.88293 42.7202 1.88293C53.6598 1.88293 62.7576 9.61884 64.5683 20.3627C64.5949 20.3627 64.62 20.3627 64.6451 20.3627C71.7993 20.3627 77.6184 26.2054 77.6184 33.3862C77.6184 40.5669 71.7993 46.4081 64.6451 46.4081H19.0687C10.4406 46.4081 3.42075 39.3596 3.42075 30.6969C3.42075 22.0327 10.4406 14.9842 19.0687 14.9842ZM6.56807 30.6969C6.56807 37.625 12.1759 43.2606 19.0687 43.2606H64.6451C70.0639 43.2606 74.4726 38.8323 74.4726 33.3862C74.4726 27.94 70.0639 23.5103 64.6451 23.5103C64.2847 23.5103 63.8889 23.5382 63.4015 23.5984L61.8035 23.7967L61.6425 22.1943C60.6545 12.4095 52.5196 5.03047 42.7202 5.03047C34.7035 5.03047 27.5079 10.1417 24.814 17.7469L24.3059 19.1833L22.8556 18.7207C21.6238 18.33 20.3507 18.1332 19.0687 18.1332C12.1759 18.1332 6.56807 23.7688 6.56807 30.6969Z" fill="white"/>
</g>
<defs>
<filter id="filter0_d_0_1274" x="-2" y="0" width="104" height="55" filterUnits="userSpaceOnUse" color-interpolation-filters="sRGB">
<feFlood flood-opacity="0" result="BackgroundImageFix"/>
<feColorMatrix in="SourceAlpha" type="matrix" values="0 0 0 0 0 0 0 0 0 0 0 0 0 0 0 0 0 0 127 0" result="hardAlpha"/>
<feOffset dy="4"/>
<feGaussianBlur stdDeviation="2"/>
<feComposite in2="hardAlpha" operator="out"/>
<feColorMatrix type="matrix" values="0 0 0 0 0 0 0 0 0 0 0 0 0 0 0 0 0 0 0.25 0"/>
<feBlend mode="normal" in2="BackgroundImageFix" result="effect1_dropShadow_0_1274"/>
<feBlend mode="normal" in="SourceGraphic" in2="effect1_dropShadow_0_1274" result="shape"/>
</filter>
</defs>
</svg>
