<svg width="79" height="64" viewBox="0 0 79 64" fill="none" xmlns="http://www.w3.org/2000/svg">
<path fill-rule="evenodd" clip-rule="evenodd" d="M62.3453 13.979C61.1876 13.979 60.0313 14.1028 58.9009 14.346C55.287 5.98329 46.8556 0.403915 37.7318 0.403915C26.3472 0.403915 16.8801 8.41956 14.9941 19.5513C14.9683 19.5513 14.941 19.5513 14.9151 19.5513C7.47048 19.5513 1.41333 25.6057 1.41333 33.0468C1.41333 40.4878 7.47048 46.5408 14.9151 46.5408H62.3453C71.324 46.5408 78.6294 39.2363 78.6294 30.2592C78.6294 21.2821 71.324 13.979 62.3453 13.979ZM75.3545 30.2592C75.3545 37.4386 69.52 43.2782 62.3453 43.2782H14.9151C9.27598 43.2782 4.68824 38.6887 4.68824 33.0468C4.68824 27.4034 9.27598 22.8124 14.9151 22.8124C15.2915 22.8124 15.7023 22.8423 16.2079 22.9035L17.8726 23.1111L18.0392 21.45C19.0677 11.3109 27.5336 3.66507 37.7318 3.66507C46.0756 3.66507 53.5634 8.96 56.3657 16.842L56.8957 18.3296L58.4054 17.8503C59.6866 17.4464 61.0124 17.2416 62.3453 17.2416C69.52 17.2416 75.3545 23.0812 75.3545 30.2592Z" fill="white"/>
<path fill-rule="evenodd" clip-rule="evenodd" d="M15.1435 55.5193C16.5224 58.0124 17.9013 60.5042 19.2816 62.9973C20.2411 64.7324 22.9214 63.1836 21.9605 61.4471C20.5816 58.954 19.2026 56.4608 17.8223 53.9676C16.8628 52.2325 14.1826 53.7813 15.1435 55.5193Z" fill="white"/>
<path fill-rule="evenodd" clip-rule="evenodd" d="M30.517 55.5193C31.8959 58.0124 33.2748 60.5042 34.6537 62.9973C35.6146 64.7324 38.2949 63.1836 37.334 61.4471C35.9551 58.954 34.5762 56.4608 33.1958 53.9676C32.2363 52.2325 29.5546 53.7813 30.517 55.5193Z" fill="white"/>
<path fill-rule="evenodd" clip-rule="evenodd" d="M46.6747 55.5193C48.055 58.0124 49.4339 60.5042 50.8128 62.9973C51.7723 64.7324 54.454 63.1836 53.4931 61.4471C52.1142 58.954 50.7338 56.4608 49.3549 53.9676C48.3954 52.2325 45.7137 53.7813 46.6747 55.5193Z" fill="white"/>
<path fill-rule="evenodd" clip-rule="evenodd" d="M62.2907 55.5193C63.6696 58.0124 65.05 60.5042 66.4289 62.9973C67.3884 64.7324 70.07 63.1836 69.1091 61.4471C67.7288 58.954 66.3499 56.4608 64.971 53.9676C64.01 52.2325 61.3298 53.7813 62.2907 55.5193Z" fill="white"/>
</svg>
