<svg width="76" height="62" viewBox="0 0 76 62" fill="none" xmlns="http://www.w3.org/2000/svg">
<path fill-rule="evenodd" clip-rule="evenodd" d="M59.9777 13.5422C58.864 13.5422 57.7516 13.6621 56.6641 13.8977C53.1875 5.79632 45.0762 0.391296 36.2989 0.391296C25.3466 0.391296 16.239 8.15645 14.4247 18.9403C14.3998 18.9403 14.3736 18.9403 14.3487 18.9403C7.18675 18.9403 1.35962 24.8055 1.35962 32.0141C1.35962 39.2226 7.18675 45.0864 14.3487 45.0864H59.9777C68.6155 45.0864 75.6434 38.0101 75.6434 29.3136C75.6434 20.6171 68.6155 13.5422 59.9777 13.5422ZM72.4929 29.3136C72.4929 36.2686 66.8799 41.9258 59.9777 41.9258H14.3487C8.92369 41.9258 4.51016 37.4797 4.51016 32.0141C4.51016 26.547 8.92369 22.0996 14.3487 22.0996C14.7107 22.0996 15.1059 22.1285 15.5923 22.1877L17.1939 22.3889L17.3542 20.7797C18.3435 10.9575 26.488 3.55054 36.2989 3.55054C44.3259 3.55054 51.5293 8.68001 54.2252 16.3157L54.7351 17.7568L56.1874 17.2925C57.42 16.9012 58.6954 16.7028 59.9777 16.7028C66.8799 16.7028 72.4929 22.36 72.4929 29.3136Z" fill="white"/>
<path fill-rule="evenodd" clip-rule="evenodd" d="M14.5686 53.7843C15.8951 56.1996 17.2217 58.6134 18.5496 61.0287C19.4726 62.7096 22.0511 61.2092 21.1267 59.5269C19.8001 57.1116 18.4736 54.6964 17.1457 52.2812C16.2226 50.6003 13.6441 52.1007 14.5686 53.7843Z" fill="white"/>
<path fill-rule="evenodd" clip-rule="evenodd" d="M29.3581 53.7843C30.6846 56.1996 32.0112 58.6134 33.3377 61.0287C34.2622 62.7096 36.8406 61.2092 35.9162 59.5269C34.5896 57.1116 33.2631 54.6964 31.9352 52.2812C31.0121 50.6003 28.4323 52.1007 29.3581 53.7843Z" fill="white"/>
<path fill-rule="evenodd" clip-rule="evenodd" d="M44.9022 53.7843C46.2302 56.1996 47.5567 58.6134 48.8832 61.0287C49.8063 62.7096 52.3862 61.2092 51.4617 59.5269C50.1352 57.1116 48.8072 54.6964 47.4807 52.2812C46.5576 50.6003 43.9778 52.1007 44.9022 53.7843Z" fill="white"/>
<path fill-rule="evenodd" clip-rule="evenodd" d="M59.9253 53.7843C61.2518 56.1996 62.5797 58.6134 63.9063 61.0287C64.8293 62.7096 67.4092 61.2092 66.4847 59.5269C65.1568 57.1116 63.8303 54.6964 62.5037 52.2812C61.5793 50.6003 59.0008 52.1007 59.9253 53.7843Z" fill="white"/>
</svg>
