<svg width="80" height="75" viewBox="0 0 80 75" fill="none" xmlns="http://www.w3.org/2000/svg">
<path fill-rule="evenodd" clip-rule="evenodd" d="M62.3446 14.6969C61.16 14.6969 59.9785 14.8224 58.8216 15.0735C55.1277 6.48214 46.5077 0.751526 37.18 0.751526C25.5415 0.751526 15.8616 8.98469 13.9354 20.4214C13.9077 20.4199 13.88 20.4199 13.8539 20.4199C6.24309 20.4199 0.0507812 26.6403 0.0507812 34.2842C0.0507812 41.9265 6.24309 48.1439 13.8539 48.1439H62.3446C71.5231 48.1439 78.9923 40.6408 78.9923 31.4204C78.9923 22.1985 71.5231 14.6969 62.3446 14.6969ZM75.6431 31.4204C75.6431 38.7949 69.6785 44.7934 62.3446 44.7934H13.8539C8.08924 44.7934 3.39847 40.0791 3.39847 34.2842C3.39847 28.4862 8.08924 23.7704 13.8539 23.7704C14.2385 23.7704 14.6585 23.801 15.1769 23.8638L16.8769 24.0765L17.0492 22.3699C18.0985 11.9556 26.7539 4.10204 37.18 4.10204C45.7108 4.10204 53.3662 9.54183 56.2308 17.6372L56.7723 19.1648L58.3154 18.6735C59.6246 18.2571 60.98 18.0474 62.3446 18.0474C69.6785 18.0474 75.6431 24.0459 75.6431 31.4204Z" fill="white"/>
<path fill-rule="evenodd" clip-rule="evenodd" d="M14.0878 57.3673C15.497 59.928 16.9078 62.4888 18.317 65.0495C19.2985 66.8311 22.0401 65.2408 21.057 63.4561C19.6462 60.8954 18.237 58.3347 16.8262 55.774C15.8447 53.9923 13.1047 55.5842 14.0878 57.3673Z" fill="white"/>
<path fill-rule="evenodd" clip-rule="evenodd" d="M29.803 57.3673C31.2138 59.928 32.6246 62.4888 34.0338 65.0495C35.0153 66.8311 37.7569 65.2408 36.7738 63.4561C35.363 60.8954 33.9538 58.3347 32.543 55.774C31.5615 53.9923 28.8215 55.5842 29.803 57.3673Z" fill="white"/>
<path fill-rule="evenodd" clip-rule="evenodd" d="M46.323 57.3673C47.7338 59.928 49.143 62.4888 50.5538 65.0495C51.5353 66.8311 54.2753 65.2408 53.2938 63.4561C51.883 60.8954 50.4723 58.3347 49.063 55.774C48.0815 53.9923 45.34 55.5842 46.323 57.3673Z" fill="white"/>
<path fill-rule="evenodd" clip-rule="evenodd" d="M62.2876 57.3673C63.6984 59.928 65.1076 62.4888 66.5184 65.0495C67.4999 66.8311 70.2399 65.2408 69.2584 63.4561C67.8476 60.8954 66.4369 58.3347 65.0276 55.774C64.0461 53.9923 61.3046 55.5842 62.2876 57.3673Z" fill="white"/>
<path fill-rule="evenodd" clip-rule="evenodd" d="M27.003 66.4408C28.4122 69.0015 29.823 71.5622 31.2322 74.123C32.2137 75.9046 34.9553 74.3143 33.9722 72.5296C32.563 69.9689 31.1522 67.4082 29.7414 64.8474C28.7614 63.0658 26.0199 64.6561 27.003 66.4408Z" fill="white"/>
<path fill-rule="evenodd" clip-rule="evenodd" d="M42.7168 66.4362C44.1276 68.997 45.5368 71.5577 46.9476 74.1184C47.9291 75.9015 50.6691 74.3097 49.6876 72.525C48.2768 69.9643 46.8661 67.4036 45.4568 64.8429C44.4753 63.0612 41.7338 64.6531 42.7168 66.4362Z" fill="white"/>
<path fill-rule="evenodd" clip-rule="evenodd" d="M58.7477 65.8026C60.1569 68.3633 61.5677 70.924 62.9769 73.4847C63.9585 75.2663 66.7 73.676 65.7169 71.8913C64.3062 69.3306 62.8969 66.7699 61.4862 64.2092C60.5046 62.4276 57.7646 64.0179 58.7477 65.8026Z" fill="white"/>
</svg>
