<svg width="94" height="83" viewBox="0 0 94 83" fill="none" xmlns="http://www.w3.org/2000/svg">
<path fill-rule="evenodd" clip-rule="evenodd" d="M17.7887 33.0435H11.3363C7.13049 33.0435 3.70755 29.5398 3.70755 25.2334C3.70755 20.9255 7.13049 17.4218 11.3363 17.4218C11.617 17.4218 11.9231 17.4436 12.3018 17.4912L13.5426 17.6491L13.6675 16.3809C14.4343 8.64153 20.7484 2.80567 28.357 2.80567C31.6605 2.80567 34.7786 3.95407 37.2951 5.92294C37.839 5.29703 38.4083 4.70379 39.0099 4.15272C36.0207 1.73484 32.2768 0.315674 28.357 0.315674C19.8635 0.315674 12.8014 6.43454 11.3954 14.9318C11.3753 14.9318 11.3565 14.9318 11.3363 14.9318C5.78361 14.9318 1.26489 19.554 1.26489 25.2334C1.26489 30.9127 5.78361 35.5335 11.3363 35.5335H17.8451C17.7874 35.0178 17.7485 34.4967 17.7485 33.9633C17.7485 33.6531 17.7686 33.3483 17.7887 33.0435Z" fill="white"/>
<path fill-rule="evenodd" clip-rule="evenodd" d="M77.9932 14.9577C76.9108 14.9577 75.8298 15.0761 74.773 15.3101C71.3944 7.30807 63.5118 1.97021 54.982 1.97021C44.3385 1.97021 35.4877 9.63887 33.7245 20.2887C33.7004 20.2887 33.6749 20.2887 33.6507 20.2887C26.6907 20.2887 21.0278 26.081 21.0278 33.2C21.0278 40.3189 26.6907 46.1085 33.6507 46.1085H77.9932C86.3874 46.1085 93.2171 39.1216 93.2171 30.5331C93.2171 21.9446 86.3874 14.9577 77.9932 14.9577ZM90.1554 30.5331C90.1554 37.4017 84.7007 42.9885 77.9932 42.9885H33.6507C28.3786 42.9885 24.0895 38.5977 24.0895 33.2C24.0895 27.8009 28.3786 23.4087 33.6507 23.4087C34.0025 23.4087 34.3866 23.4373 34.8593 23.4958L36.4156 23.6944L36.5714 22.1052C37.5329 12.4051 45.4477 5.0902 54.982 5.0902C62.7826 5.0902 69.7829 10.1559 72.4029 17.6967L72.8984 19.1199L74.3097 18.6614C75.5075 18.275 76.747 18.079 77.9932 18.079C84.7007 18.079 90.1554 23.6659 90.1554 30.5331Z" fill="white"/>
<path fill-rule="evenodd" clip-rule="evenodd" d="M33.8643 54.6997C35.1534 57.0836 36.4426 59.4688 37.7331 61.854C38.6301 63.514 41.1359 62.0323 40.2375 60.3696C38.9483 57.9857 37.6592 55.6005 36.3687 53.2152C35.4717 51.5566 32.9659 53.0384 33.8643 54.6997Z" fill="white"/>
<path fill-rule="evenodd" clip-rule="evenodd" d="M77.9422 54.6997C79.2313 57.0836 80.5218 59.4688 81.8109 61.854C82.708 63.514 85.2151 62.0323 84.3167 60.3696C83.0262 57.9857 81.7371 55.6005 80.4479 53.2152C79.5496 51.5566 77.0438 53.0384 77.9422 54.6997Z" fill="white"/>
<path fill-rule="evenodd" clip-rule="evenodd" d="M74.7044 62.5548C75.9935 64.94 77.2827 67.3253 78.5731 69.7105C79.4702 71.3691 81.9759 69.8874 81.0776 68.226C79.7884 65.8408 78.4993 63.4569 77.2088 61.0717C76.3118 59.4117 73.806 60.8934 74.7044 62.5548Z" fill="white"/>
<path fill-rule="evenodd" clip-rule="evenodd" d="M11.9353 45.1819C13.2257 47.5672 14.5149 49.9524 15.804 52.3376C16.7011 53.9963 19.2082 52.5145 18.3098 50.8531C17.0207 48.4679 15.7302 46.084 14.441 43.6988C13.544 42.0388 11.0369 43.5206 11.9353 45.1819Z" fill="white"/>
<path fill-rule="evenodd" clip-rule="evenodd" d="M23.7471 53.633C25.0362 56.0182 26.3254 58.4021 27.6159 60.7873C28.5129 62.4473 31.0187 60.9655 30.1203 59.3042C28.8312 56.9189 27.542 54.5337 26.2515 52.1485C25.3545 50.4885 22.8487 51.9716 23.7471 53.633Z" fill="white"/>
<path fill-rule="evenodd" clip-rule="evenodd" d="M20.3684 63.1494C21.6576 65.5346 22.9467 67.9199 24.2372 70.3051C25.1342 71.9637 27.6413 70.482 26.7416 68.8206C25.4525 66.4354 24.1633 64.0502 22.8742 61.6663C21.9758 60.0063 19.4701 61.488 20.3684 63.1494Z" fill="white"/>
<path fill-rule="evenodd" clip-rule="evenodd" d="M33.8643 64.7903C35.1534 67.1742 36.4426 69.5594 37.7331 71.9447C38.6301 73.6047 41.1359 72.1229 40.2375 70.4602C38.9483 68.0763 37.6592 65.6911 36.3687 63.3059C35.4717 61.6459 32.9659 63.129 33.8643 64.7903Z" fill="white"/>
<path fill-rule="evenodd" clip-rule="evenodd" d="M61.856 45.963L61.5471 46.1085H61.9245L61.856 45.963Z" fill="white"/>
<path fill-rule="evenodd" clip-rule="evenodd" d="M47.8582 45.831L47.4258 46.1085H48.0328L47.8582 45.831Z" fill="white"/>
<path fill-rule="evenodd" clip-rule="evenodd" d="M67.9728 64.6951H63.2996C62.6806 64.6951 62.1058 65.0067 61.7621 65.5306C61.4196 66.053 61.3552 66.7116 61.5942 67.2912L65.9813 77.9234L48.1173 58.7286H52.589C53.2631 58.7286 53.8849 58.3558 54.2085 57.7571C54.5335 57.1571 54.5106 56.4278 54.1481 55.8495L49.7314 48.8135H46.9799L51.7269 56.3761H47.0229C46.2843 56.3761 45.6169 56.821 45.3255 57.5068C45.0328 58.1939 45.1711 58.9899 45.6773 59.5341L66.0726 81.4489C66.4379 81.8421 66.92 82.0448 67.4115 82.0448C67.7579 82.0448 68.1084 81.9441 68.424 81.736C69.1854 81.2352 69.4741 80.2923 69.1236 79.4419L64.01 67.0477H68.7167C69.3532 67.0477 69.9374 66.7211 70.2785 66.1769C70.6182 65.6326 70.6612 64.9591 70.3899 64.3781L63.1774 48.8135H60.6139L67.9728 64.6951Z" fill="white"/>
</svg>
