<svg width="79" height="80" viewBox="0 0 79 80" fill="none" xmlns="http://www.w3.org/2000/svg">
<path fill-rule="evenodd" clip-rule="evenodd" d="M74.408 56.8071H2.64954C1.61713 56.8071 0.772415 56.0146 0.772415 55.0444C0.772415 54.0758 1.61713 53.2833 2.64954 53.2833H74.408C75.4404 53.2833 76.2852 54.0758 76.2852 55.0444C76.2852 56.0146 75.4404 56.8071 74.408 56.8071Z" fill="white"/>
<path fill-rule="evenodd" clip-rule="evenodd" d="M57.6946 68.1921H2.64954C1.61712 68.1921 0.772408 67.3997 0.772408 66.4294C0.772408 65.4608 1.61712 64.6683 2.64954 64.6683H57.6946C58.727 64.6683 59.5735 65.4608 59.5735 66.4294C59.5735 67.3997 58.727 68.1921 57.6946 68.1921Z" fill="white"/>
<path fill-rule="evenodd" clip-rule="evenodd" d="M17.2511 13.68C18.4243 13.68 19.594 13.8017 20.7377 14.04C24.3946 5.84333 32.9286 0.375 42.1613 0.375C53.683 0.375 63.2651 8.23167 65.1717 19.1417C65.1996 19.1417 65.2256 19.1417 65.2534 19.1417C72.7863 19.1417 78.9165 25.075 78.9165 32.3683C78.9165 39.6617 72.7863 45.5933 65.2534 45.5933H17.2511C8.16437 45.5933 0.772301 38.435 0.772301 29.6367C0.772301 20.8383 8.16437 13.68 17.2511 13.68ZM4.08683 29.6367C4.08683 36.6733 9.9911 42.3967 17.2511 42.3967H65.2534C70.9596 42.3967 75.602 37.8983 75.602 32.3683C75.602 26.8383 70.9596 22.3383 65.2534 22.3383C64.8728 22.3383 64.4557 22.3667 63.9429 22.4283L62.2587 22.63L62.0901 21.0017C61.0508 11.065 52.482 3.57167 42.1613 3.57167C33.7177 3.57167 26.1396 8.76167 23.3031 16.4867L22.766 17.945L21.24 17.475C19.9434 17.0783 18.6016 16.8767 17.2511 16.8767C9.9911 16.8767 4.08683 22.6 4.08683 29.6367Z" fill="white"/>
<path fill-rule="evenodd" clip-rule="evenodd" d="M39.5472 79.1205H2.6494C1.61698 79.1205 0.77227 78.3276 0.77227 77.3586C0.77227 76.3895 1.61698 75.5967 2.6494 75.5967H39.5472C40.5813 75.5967 41.426 76.3895 41.426 77.3586C41.426 78.3276 40.5813 79.1205 39.5472 79.1205Z" fill="white"/>
</svg>
